<?xml version="1.0" encoding="UTF-8" standalone="no"?>
<svg
   xmlns:dc="http://purl.org/dc/elements/1.1/"
   xmlns:cc="http://creativecommons.org/ns#"
   xmlns:rdf="http://www.w3.org/1999/02/22-rdf-syntax-ns#"
   xmlns:svg="http://www.w3.org/2000/svg"
   xmlns="http://www.w3.org/2000/svg"
   xmlns:sodipodi="http://sodipodi.sourceforge.net/DTD/sodipodi-0.dtd"
   xmlns:inkscape="http://www.inkscape.org/namespaces/inkscape"
   version="1.1"
   id="Capa_1"
   x="0px"
   y="0px"
   width="47.318974"
   height="49.948357"
   viewBox="-40 -40 123.02933 129.86572"
   xml:space="preserve"
   sodipodi:docname="around-clock-corporate-color-light-50x50.svg"
   inkscape:version="0.92.2 (unknown)"><metadata
     id="metadata25"><rdf:RDF><cc:Work
         rdf:about=""><dc:format>image/svg+xml</dc:format><dc:type
           rdf:resource="http://purl.org/dc/dcmitype/StillImage" /><dc:title></dc:title></cc:Work></rdf:RDF></metadata><defs
     id="defs23" /><sodipodi:namedview
     pagecolor="#ffffff"
     bordercolor="#666666"
     borderopacity="1"
     objecttolerance="10"
     gridtolerance="10"
     guidetolerance="10"
     inkscape:pageopacity="0"
     inkscape:pageshadow="2"
     inkscape:window-width="1855"
     inkscape:window-height="1056"
     id="namedview21"
     showgrid="false"
     fit-margin-top="0"
     fit-margin-left="0"
     fit-margin-right="0"
     fit-margin-bottom="0"
     inkscape:zoom="4.72"
     inkscape:cx="-2.1140937"
     inkscape:cy="9.4007335"
     inkscape:window-x="65"
     inkscape:window-y="24"
     inkscape:window-maximized="1"
     inkscape:current-layer="g18" /><g
     id="g18"
     transform="translate(-41.301729,40.423729)"><g
       id="g16"
       transform="matrix(2.6266277,0,0,2.6266277,-2.1174279,-80.423729)"
       style="fill:#3399cc;fill-opacity:1"><path
         d="m 25.639,38.596 c 0.004,0 0.008,-0.002 0.013,-0.002 0.007,0 0.015,0.002 0.022,0.002 4.626,0 8.771,-2.107 11.524,-5.41 0.252,-0.303 0.492,-0.618 0.72,-0.94 1.733,-2.446 2.756,-5.431 2.756,-8.65 0,-3.219 -1.021,-6.202 -2.756,-8.648 -0.228,-0.323 -0.467,-0.638 -0.72,-0.94 -2.754,-3.303 -6.897,-5.41 -11.524,-5.41 -0.008,0 -0.016,0 -0.022,0 -0.005,0 -0.009,0 -0.013,0 -0.018,0 -0.035,0.002 -0.052,0.002 -4.592,0.026 -8.7,2.128 -11.436,5.409 -0.253,0.303 -0.492,0.617 -0.721,0.939 -1.733,2.446 -2.757,5.429 -2.757,8.648 0,3.221 1.023,6.204 2.757,8.65 0.229,0.321 0.468,0.638 0.721,0.938 2.736,3.281 6.844,5.383 11.436,5.41 0.017,0 0.034,0.002 0.052,0.002 z m 0.651,-1.285 v -7.566 c 2.116,0.053 4.109,0.368 5.875,0.893 -1.222,3.702 -3.378,6.286 -5.875,6.673 z m 3.66,-0.629 c 1.399,-1.336 2.563,-3.301 3.36,-5.666 1.081,0.398 2.054,0.881 2.89,1.429 -1.633,1.94 -3.787,3.428 -6.25,4.237 z m 6.977,-5.176 c -0.949,-0.635 -2.05,-1.188 -3.27,-1.643 0.434,-1.592 0.711,-3.332 0.79,-5.165 h 4.947 c -0.199,2.523 -1.087,4.851 -2.467,6.808 z m 2.514,-8.038 h -4.97 c -0.01,-2.191 -0.304,-4.27 -0.812,-6.143 1.218,-0.453 2.317,-1.006 3.268,-1.64 1.556,2.209 2.487,4.888 2.514,7.783 z m -3.239,-8.724 c -0.837,0.55 -1.812,1.032 -2.895,1.432 -0.797,-2.365 -1.959,-4.332 -3.358,-5.668 2.464,0.808 4.62,2.296 6.253,4.236 z M 26.29,9.879 c 2.497,0.387 4.647,2.974 5.871,6.677 -1.765,0.522 -3.756,0.84 -5.871,0.89 z M 25.059,9.87 v 7.575 c -2.142,-0.051 -4.157,-0.374 -5.938,-0.908 1.236,-3.728 3.413,-6.321 5.938,-6.667 z m -3.77,0.676 c -1.379,1.329 -2.523,3.273 -3.313,5.607 -1.058,-0.396 -2.01,-0.872 -2.831,-1.409 1.609,-1.912 3.726,-3.383 6.144,-4.198 z m -6.866,5.139 c 0.932,0.623 2.01,1.168 3.202,1.616 -0.515,1.88 -0.81,3.965 -0.82,6.167 h -4.896 c 0.026,-2.895 0.958,-5.575 2.514,-7.783 z m -2.47,9.014 h 4.876 c 0.08,1.843 0.358,3.592 0.796,5.189 -1.193,0.449 -2.271,0.994 -3.202,1.617 -1.38,-1.956 -2.268,-4.284 -2.47,-6.806 z m 3.196,7.745 c 0.82,-0.537 1.771,-1.013 2.826,-1.407 0.789,2.335 1.936,4.277 3.314,5.607 -2.418,-0.815 -4.53,-2.289 -6.14,-4.2 z m 9.91,4.876 c -2.524,-0.346 -4.705,-2.938 -5.94,-6.666 1.78,-0.535 3.798,-0.857 5.94,-0.91 z m -6.285,-7.822 c -0.389,-1.477 -0.638,-3.093 -0.713,-4.8 l -0.024,-1.23 c 0.01,-2.067 0.279,-4.02 0.742,-5.774 1.895,0.579 4.023,0.93 6.28,0.984 h 1.231 c 2.229,-0.055 4.335,-0.396 6.213,-0.965 0.46,1.75 0.728,3.696 0.738,5.755 l -0.024,1.23 c -0.075,1.698 -0.323,3.31 -0.708,4.778 -1.88,-0.568 -3.986,-0.912 -6.219,-0.965 h -1.231 c -2.26,0.056 -4.39,0.406 -6.285,0.987 z"
         id="path2"
         inkscape:connector-curvature="0"
         style="fill:#3399cc;fill-opacity:1" /><path
         d="m 21.432,24.834 c 0.214,-0.13 0.438,-0.257 0.673,-0.378 0.235,-0.122 0.451,-0.259 0.647,-0.409 0.196,-0.149 0.356,-0.325 0.482,-0.525 0.127,-0.2 0.19,-0.447 0.19,-0.738 0,-0.239 -0.045,-0.45 -0.135,-0.631 -0.088,-0.181 -0.215,-0.33 -0.378,-0.447 -0.164,-0.117 -0.359,-0.206 -0.589,-0.265 -0.229,-0.059 -0.48,-0.089 -0.754,-0.089 -0.306,0 -0.581,0.045 -0.827,0.131 -0.245,0.087 -0.454,0.215 -0.624,0.383 -0.169,0.168 -0.296,0.373 -0.379,0.617 -0.083,0.244 -0.115,0.523 -0.097,0.837 h 1.228 c -0.009,-0.279 0.038,-0.505 0.141,-0.677 0.102,-0.173 0.283,-0.259 0.546,-0.259 0.152,0 0.281,0.04 0.388,0.122 0.107,0.08 0.16,0.225 0.16,0.434 0,0.083 -0.021,0.157 -0.062,0.223 -0.041,0.066 -0.094,0.124 -0.157,0.176 -0.063,0.053 -0.13,0.101 -0.202,0.145 -0.072,0.043 -0.137,0.083 -0.193,0.117 -0.143,0.087 -0.291,0.175 -0.443,0.266 -0.153,0.088 -0.3,0.182 -0.441,0.279 -0.142,0.099 -0.274,0.203 -0.399,0.316 -0.123,0.113 -0.233,0.235 -0.329,0.366 -0.113,0.151 -0.199,0.322 -0.258,0.511 -0.059,0.188 -0.082,0.391 -0.068,0.613 h 3.938 v -1.109 h -2.058 z"
         id="path4"
         inkscape:connector-curvature="0"
         style="fill:#3399cc;fill-opacity:1" /><path
         d="m 27.26,25.952 v -0.901 h 0.614 V 23.94 H 27.26 v -2.535 h -1.301 l -2.077,2.418 v 1.229 h 2.019 v 0.9 z M 24.79,23.94 25.9,22.666 v 1.274 z"
         id="path6"
         inkscape:connector-curvature="0"
         style="fill:#3399cc;fill-opacity:1" /><path
         d="m 29.697,24.161 c 0,-0.135 0.018,-0.244 0.05,-0.329 0.032,-0.085 0.073,-0.152 0.124,-0.199 0.05,-0.049 0.104,-0.081 0.167,-0.099 0.06,-0.017 0.119,-0.026 0.176,-0.026 0.097,0 0.171,0.017 0.227,0.05 0.054,0.032 0.097,0.078 0.127,0.137 0.03,0.059 0.051,0.13 0.059,0.212 0.009,0.083 0.014,0.173 0.014,0.269 v 1.777 h 1.294 v -2.326 c 0,-0.196 -0.031,-0.365 -0.095,-0.51 -0.062,-0.144 -0.148,-0.263 -0.258,-0.355 -0.109,-0.094 -0.233,-0.165 -0.373,-0.213 -0.14,-0.048 -0.286,-0.072 -0.438,-0.072 -0.273,0 -0.492,0.043 -0.652,0.128 -0.161,0.085 -0.297,0.192 -0.405,0.323 H 29.7 v -1.64 h -1.293 v 4.665 H 29.7 Z"
         id="path8"
         inkscape:connector-curvature="0"
         style="fill:#3399cc;fill-opacity:1" /><path
         d="m 25.323,2.811 c 6.39,0 12.095,2.969 15.824,7.592 l -2.448,1.73 7.704,2.63 -0.801,-7.505 -2.157,1.523 C 39.202,3.437 32.66,0 25.323,0 21.71,0 18.288,0.834 15.238,2.316 l 0.898,2.696 c 2.762,-1.404 5.882,-2.201 9.187,-2.201 z"
         id="path10"
         inkscape:connector-curvature="0"
         style="fill:#3399cc;fill-opacity:1" /><path
         d="m 45.499,28.365 c -0.707,3.018 -2.108,5.917 -4.238,8.441 -4.121,4.886 -10.067,7.332 -16.007,7.203 l 0.258,-2.988 -6.978,4.193 6.252,4.228 0.228,-2.632 c 6.818,0.201 13.666,-2.584 18.396,-8.19 2.33,-2.763 3.897,-5.915 4.731,-9.203 z"
         id="path12"
         inkscape:connector-curvature="0"
         style="fill:#3399cc;fill-opacity:1" /><path
         d="M 5.632,31.42 C 3.205,25.51 3.784,19.105 6.646,13.898 l 2.529,1.61 -0.493,-8.127 -6.638,3.59 2.229,1.418 c -3.331,5.953 -4.027,13.313 -1.24,20.099 1.371,3.345 3.442,6.191 5.972,8.451 l 2.153,-1.856 C 8.809,37.062 6.886,34.477 5.632,31.42 Z"
         id="path14"
         inkscape:connector-curvature="0"
         style="fill:#3399cc;fill-opacity:1" /></g></g></svg>