<?xml version="1.0" encoding="utf-8"?>
<svg version="1.1" id="brain-muscle" xmlns="http://www.w3.org/2000/svg" xmlns:xlink="http://www.w3.org/1999/xlink"
	 x="0px" y="0px" viewBox="-200 -200 1600 1600" enable-background="new 0 0 1200 1200" xml:space="preserve">
<g>
	<g>
		<path fill="#01406B" d="M353.8,576.1c-0.7,3.1-1,6.3-1,9.5c0,20.3,13.5,37.6,32,43.3c-2.9-7-4.5-14.6-4.5-22.7
			c0-3.8,0.4-7.5,1.1-11.2C370.1,591.8,360.8,585.3,353.8,576.1z"/>
	</g>
	<g>
		<path fill="#01406B" d="M508.1,672.9c6-4.1,9.6-11,9.6-18.3c0-11.5-8.8-21-20.1-22c-6.9,3.3-14.7,5.1-22.8,5.1
			c-1.7,0-3.4-0.1-5.2-0.2c-13.9-0.6-27.3-6.1-37.7-15.4c-7.7-5.9-14.5-13.2-20-21.6c-10.9-16.4-16-35.3-14.5-52.9
			c-7.2-3.4-12.2-10.7-12.2-19.2h15c0,3.5,2.8,6.3,6.3,6.3c3.5,0,6.3-2.8,6.3-6.3h15c0,9.7-6.5,17.9-15.4,20.5
			c-1.2,14.3,3.1,29.8,12.1,43.4c4.7,7.1,10.4,13.2,16.9,18.2c0.2,0.1,0.3,0.3,0.5,0.4c7.8,7.1,18,11.3,28.6,11.7c0.1,0,0.2,0,0.4,0
			c9.1,0.8,17.5-1.2,24.4-5.7c0.9-0.6,1.7-1.2,2.5-1.9c0.2-0.2,0.5-0.4,0.7-0.6c12.1-8.5,19.3-22.4,19.3-37.1
			c0-18.1-10.7-34.4-27.3-41.6c-3.4-1.5-5.2-5.1-4.3-8.7c0.9-3.6,4.2-5.9,7.9-5.7c0.6,0,1.1,0.1,1.7,0.1c12.2,0,22.1-9.9,22.1-22.1
			c0-7.3-3.6-14.1-9.7-18.3c-2-1.4-3.3-3.7-3.3-6.2c0-2.5,1.2-4.8,3.3-6.2c6-4.1,9.7-10.9,9.7-18.2c0-1-0.1-2.1-0.3-3.4
			c0-0.2-0.1-0.4-0.1-0.6c-0.1-0.8-0.2-1.6-0.3-2.4c-0.8-3.7-3-7-6.5-9.9c-2.3-2-4.6-3.5-7.2-4.4c-0.1,0-0.3-0.1-0.4-0.2
			c-10.3-4.5-24.1-5.3-37.8-2.2c-14.5,3.3-27.3,10.7-34.5,19.9c-0.1,0.2-0.3,0.4-0.5,0.5c-3.9,4.1-6,9.5-6,15.1
			c0,2.5,0.4,4.9,1.2,7.2c5,3.1,9.8,7.1,14.2,12c6.2-11.8,18.6-19.9,32.8-19.9v15c-11.5,0-21,8.8-22,20
			c8.4,14.8,13.9,33.9,14.6,56.7c8.1,3,13.9,10.8,13.9,19.9h-15c0-3.5-2.8-6.3-6.3-6.3c-3.5,0-6.3,2.8-6.3,6.3h-15
			c0-9.1,5.7-16.8,13.7-19.9c-1.6-48.2-26.6-76.8-50.7-76.8c-25.4,0-45.3,20.8-45.3,47.3c0,37,16.5,58.2,45.3,58.2v15
			c-1.1,0-2.1-0.1-3.1-0.2c-0.6,2.9-0.9,5.8-0.9,8.8c0,23.1,17.3,42.1,39.7,44.9c3.3-7.5,10.8-12.7,19.4-12.7v15
			c-3.5,0-6.3,2.8-6.3,6.3s2.8,6.3,6.3,6.3v15c-9.5,0-17.6-6.3-20.3-14.9c-15.5-1.7-29.2-9.3-39-20.4c-9.9-0.5-19.2-3.3-27.3-8.1
			c-1.5,4.5-2.2,9.2-2.2,14c0,25,20.3,45.3,45.3,45.3c3.9,0,7.8-0.5,11.5-1.5c2-0.5,4.1-0.2,5.9,0.9c1.7,1.1,3,2.8,3.4,4.8
			c4.3,20.9,23,36.1,44.4,36.1c15,0,29.1-7.9,37.7-21.2l0.2-0.3c0,0,0-0.1,0.1-0.1c0.1-0.1,0.1-0.2,0.2-0.3
			c2.3-3.6,3.5-7.7,3.5-11.9c0-7.3-3.6-14.1-9.6-18.3c-2-1.4-3.3-3.7-3.3-6.2C504.8,676.6,506,674.3,508.1,672.9z"/>
	</g>
	<g>
		<path fill="#01406B" d="M537.5,621.9c-5-4.5-9.1-9.8-12.3-15.6c-3.2,5.8-7.3,11.1-12.3,15.6c4.8,2.6,9,6.2,12.3,10.5
			C528.5,628.1,532.7,624.4,537.5,621.9z"/>
	</g>
	<g>
		<path fill="#01406B" d="M858.5,308.5l-23.7-56.9c-7.7-18.5-25.7-30.5-45.7-30.5h-79.2l-4.2,94.6l54.4,2.4l2.3-52.9l2.4,55.4
			l0.1,2.3l-2.5,0.1l-62,2.7l-4.9,0.2l-0.2-5.3l-2.4-55.4h-38.4l0.1,59.9c0,25.1,16.2,47.3,40.1,55l49.5,16l-36.4,106.7
			c2.4,6.7,3.7,14,3.7,21.7c0,37.3-15.9,62.9-42.4,70.7c0.7,3.7,1.1,7.4,1.1,11.2c0,31.1-23.6,56.7-53.8,60
			c-2.7,8.6-10.8,14.9-20.3,14.9v-15c3.5,0,6.3-2.8,6.3-6.3s-2.8-6.3-6.3-6.3v-15c8.7,0,16.1,5.2,19.4,12.7
			c22.3-2.8,39.7-21.9,39.7-44.9c0-3-0.3-5.9-0.9-8.8c-1.1,0-2.1,0.2-3.1,0.2v-15c28.8,0,45.3-21.2,45.3-58.2
			c0-26.5-19.9-47.3-45.3-47.3c-24.2,0-49.1,28.6-50.7,76.8c8,3.1,13.7,10.8,13.7,19.9h-15c0-3.5-2.8-6.3-6.3-6.3
			c-3.5,0-6.3,2.8-6.3,6.3h-15c0-9.1,5.8-16.9,13.9-19.9c0.7-22.8,6.2-41.9,14.6-56.7c-1-11.2-10.5-20-22-20v-15
			c14.2,0,26.6,8.1,32.8,19.9c4.4-4.9,9.2-8.8,14.2-12c0.8-2.3,1.2-4.7,1.2-7.2c0-5.6-2.1-11-6-15.1c-0.2-0.2-0.3-0.4-0.5-0.5
			c-7.1-9.2-20-16.6-34.5-19.9c-13.7-3.1-27.5-2.3-37.8,2.2c-0.1,0.1-0.2,0.1-0.4,0.2c-2.6,1-5,2.4-7,4.2c-3.7,3-5.9,6.4-6.7,10.1
			c-0.2,0.8-0.3,1.6-0.3,2.4c0,0.2,0,0.4-0.1,0.6c-0.2,1.3-0.3,2.4-0.3,3.4c0,7.3,3.6,14.1,9.7,18.2c2,1.4,3.3,3.7,3.3,6.2
			c0,2.5-1.2,4.8-3.3,6.2c-6.1,4.1-9.7,11-9.7,18.3c0,12.2,9.9,22.1,22.1,22.1c0.6,0,1.1,0,1.7-0.1c3.7-0.3,7,2.1,7.9,5.7
			c0.9,3.6-0.9,7.2-4.3,8.7c-16.6,7.2-27.3,23.5-27.3,41.6c0,14.7,7.2,28.6,19.3,37.1c0.2,0.2,0.5,0.4,0.7,0.6
			c0.8,0.7,1.6,1.3,2.5,1.9c6.9,4.6,15.3,6.6,24.4,5.7c0.1,0,0.2,0,0.4,0c10.6-0.4,20.8-4.6,28.6-11.7c0.2-0.1,0.3-0.3,0.5-0.4
			c6.5-5,12.2-11.1,16.9-18.2c9-13.6,13.3-29.1,12.1-43.4c-8.9-2.5-15.4-10.7-15.4-20.5h15c0,3.5,2.8,6.3,6.3,6.3
			c3.5,0,6.3-2.8,6.3-6.3h15c0,8.5-5,15.8-12.2,19.2c1.5,17.6-3.7,36.5-14.5,52.9c-5.6,8.4-12.3,15.7-20,21.6
			c-10.4,9.3-23.7,14.8-37.7,15.4c-1.7,0.2-3.5,0.2-5.2,0.2c-8.1,0-15.8-1.7-22.8-5.1c-11.2,1-20.1,10.5-20.1,22
			c0,7.3,3.6,14.1,9.6,18.3c2,1.4,3.3,3.7,3.3,6.2c0,2.5-1.2,4.8-3.3,6.2c-6,4.1-9.6,11-9.6,18.3c0,4.2,1.2,8.3,3.5,11.9
			c0.1,0.1,0.1,0.2,0.2,0.3c0,0,0,0.1,0.1,0.1c0.1,0.1,0.2,0.2,0.2,0.3c8.6,13.3,22.7,21.2,37.7,21.2c21.4,0,40-15.2,44.4-36.1
			l14.7,3c-3.7,17.6-14.9,32.1-29.9,40.4c159.4-8,270.8-47,270.8-47l0.6-306.8C875,362.7,869.4,334.6,858.5,308.5z"/>
	</g>
	<g>
		<path fill="#01406B" d="M537.9,532.2c-5-2.6-9.3-6.2-12.6-10.7c-3.4,4.4-7.7,8.1-12.6,10.7c5.1,4.6,9.4,9.9,12.6,15.9
			C528.5,542.2,532.8,536.8,537.9,532.2z"/>
	</g>
</g>
</svg>
