<?xml version="1.0" encoding="UTF-8" standalone="no"?>
<svg
   xmlns:dc="http://purl.org/dc/elements/1.1/"
   xmlns:cc="http://creativecommons.org/ns#"
   xmlns:rdf="http://www.w3.org/1999/02/22-rdf-syntax-ns#"
   xmlns:svg="http://www.w3.org/2000/svg"
   xmlns="http://www.w3.org/2000/svg"
   xmlns:sodipodi="http://sodipodi.sourceforge.net/DTD/sodipodi-0.dtd"
   xmlns:inkscape="http://www.inkscape.org/namespaces/inkscape"
   version="1.1"
   id="brain-muscle"
   x="0px"
   y="0px"
   viewBox="-200 -200 574.64003 576.4"
   enable-background="new 0 0 1200 1200"
   xml:space="preserve"
   sodipodi:docname="brain-muscle.svg"
   width="522.40002"
   height="524"
   inkscape:version="0.92.2 (unknown)"><metadata
     id="metadata29"><rdf:RDF><cc:Work
         rdf:about=""><dc:format>image/svg+xml</dc:format><dc:type
           rdf:resource="http://purl.org/dc/dcmitype/StillImage" /><dc:title></dc:title></cc:Work></rdf:RDF></metadata><defs
     id="defs27" /><sodipodi:namedview
     pagecolor="#ffffff"
     bordercolor="#666666"
     borderopacity="1"
     objecttolerance="10"
     gridtolerance="10"
     guidetolerance="10"
     inkscape:pageopacity="0"
     inkscape:pageshadow="2"
     inkscape:window-width="838"
     inkscape:window-height="480"
     id="namedview25"
     showgrid="false"
     showguides="false"
     fit-margin-top="0"
     fit-margin-left="0"
     fit-margin-right="0"
     fit-margin-bottom="0"
     scale-x="1.1"
     inkscape:zoom="0.1475"
     inkscape:cx="247.2"
     inkscape:cy="145.1"
     inkscape:window-x="75"
     inkscape:window-y="34"
     inkscape:window-maximized="0"
     inkscape:current-layer="brain-muscle"><sodipodi:guide
       position="2118.3864,1168.8288"
       orientation="0.70710678,0.70710678"
       id="guide836"
       inkscape:locked="false" /></sodipodi:namedview><g
     id="g22"
     transform="translate(-530.42712,-398.72712)"><g
       id="g4"><path
         d="m 353.8,576.1 c -0.7,3.1 -1,6.3 -1,9.5 0,20.3 13.5,37.6 32,43.3 -2.9,-7 -4.5,-14.6 -4.5,-22.7 0,-3.8 0.4,-7.5 1.1,-11.2 -11.3,-3.2 -20.6,-9.7 -27.6,-18.9 z"
         id="path2"
         inkscape:connector-curvature="0"
         style="fill:#01406b" /></g><g
       id="g8"><path
         d="m 508.1,672.9 c 6,-4.1 9.6,-11 9.6,-18.3 0,-11.5 -8.8,-21 -20.1,-22 -6.9,3.3 -14.7,5.1 -22.8,5.1 -1.7,0 -3.4,-0.1 -5.2,-0.2 -13.9,-0.6 -27.3,-6.1 -37.7,-15.4 -7.7,-5.9 -14.5,-13.2 -20,-21.6 -10.9,-16.4 -16,-35.3 -14.5,-52.9 -7.2,-3.4 -12.2,-10.7 -12.2,-19.2 h 15 c 0,3.5 2.8,6.3 6.3,6.3 3.5,0 6.3,-2.8 6.3,-6.3 h 15 c 0,9.7 -6.5,17.9 -15.4,20.5 -1.2,14.3 3.1,29.8 12.1,43.4 4.7,7.1 10.4,13.2 16.9,18.2 0.2,0.1 0.3,0.3 0.5,0.4 7.8,7.1 18,11.3 28.6,11.7 0.1,0 0.2,0 0.4,0 9.1,0.8 17.5,-1.2 24.4,-5.7 0.9,-0.6 1.7,-1.2 2.5,-1.9 0.2,-0.2 0.5,-0.4 0.7,-0.6 12.1,-8.5 19.3,-22.4 19.3,-37.1 0,-18.1 -10.7,-34.4 -27.3,-41.6 -3.4,-1.5 -5.2,-5.1 -4.3,-8.7 0.9,-3.6 4.2,-5.9 7.9,-5.7 0.6,0 1.1,0.1 1.7,0.1 12.2,0 22.1,-9.9 22.1,-22.1 0,-7.3 -3.6,-14.1 -9.7,-18.3 -2,-1.4 -3.3,-3.7 -3.3,-6.2 0,-2.5 1.2,-4.8 3.3,-6.2 6,-4.1 9.7,-10.9 9.7,-18.2 0,-1 -0.1,-2.1 -0.3,-3.4 0,-0.2 -0.1,-0.4 -0.1,-0.6 -0.1,-0.8 -0.2,-1.6 -0.3,-2.4 -0.8,-3.7 -3,-7 -6.5,-9.9 -2.3,-2 -4.6,-3.5 -7.2,-4.4 -0.1,0 -0.3,-0.1 -0.4,-0.2 -10.3,-4.5 -24.1,-5.3 -37.8,-2.2 -14.5,3.3 -27.3,10.7 -34.5,19.9 -0.1,0.2 -0.3,0.4 -0.5,0.5 -3.9,4.1 -6,9.5 -6,15.1 0,2.5 0.4,4.9 1.2,7.2 5,3.1 9.8,7.1 14.2,12 6.2,-11.8 18.6,-19.9 32.8,-19.9 v 15 c -11.5,0 -21,8.8 -22,20 8.4,14.8 13.9,33.9 14.6,56.7 8.1,3 13.9,10.8 13.9,19.9 h -15 c 0,-3.5 -2.8,-6.3 -6.3,-6.3 -3.5,0 -6.3,2.8 -6.3,6.3 h -15 c 0,-9.1 5.7,-16.8 13.7,-19.9 -1.6,-48.2 -26.6,-76.8 -50.7,-76.8 -25.4,0 -45.3,20.8 -45.3,47.3 0,37 16.5,58.2 45.3,58.2 v 15 c -1.1,0 -2.1,-0.1 -3.1,-0.2 -0.6,2.9 -0.9,5.8 -0.9,8.8 0,23.1 17.3,42.1 39.7,44.9 3.3,-7.5 10.8,-12.7 19.4,-12.7 v 15 c -3.5,0 -6.3,2.8 -6.3,6.3 0,3.5 2.8,6.3 6.3,6.3 v 15 c -9.5,0 -17.6,-6.3 -20.3,-14.9 -15.5,-1.7 -29.2,-9.3 -39,-20.4 -9.9,-0.5 -19.2,-3.3 -27.3,-8.1 -1.5,4.5 -2.2,9.2 -2.2,14 0,25 20.3,45.3 45.3,45.3 3.9,0 7.8,-0.5 11.5,-1.5 2,-0.5 4.1,-0.2 5.9,0.9 1.7,1.1 3,2.8 3.4,4.8 4.3,20.9 23,36.1 44.4,36.1 15,0 29.1,-7.9 37.7,-21.2 l 0.2,-0.3 c 0,0 0,-0.1 0.1,-0.1 0.1,-0.1 0.1,-0.2 0.2,-0.3 2.3,-3.6 3.5,-7.7 3.5,-11.9 0,-7.3 -3.6,-14.1 -9.6,-18.3 -2,-1.4 -3.3,-3.7 -3.3,-6.2 -0.2,-2.2 1,-4.5 3.1,-5.9 z"
         id="path6"
         inkscape:connector-curvature="0"
         style="fill:#01406b" /></g><g
       id="g12"><path
         d="m 537.5,621.9 c -5,-4.5 -9.1,-9.8 -12.3,-15.6 -3.2,5.8 -7.3,11.1 -12.3,15.6 4.8,2.6 9,6.2 12.3,10.5 3.3,-4.3 7.5,-8 12.3,-10.5 z"
         id="path10"
         inkscape:connector-curvature="0"
         style="fill:#01406b" /></g><g
       id="g16"><path
         d="m 858.5,308.5 -23.7,-56.9 c -7.7,-18.5 -25.7,-30.5 -45.7,-30.5 h -79.2 l -4.2,94.6 54.4,2.4 2.3,-52.9 2.4,55.4 0.1,2.3 -2.5,0.1 -62,2.7 -4.9,0.2 -0.2,-5.3 -2.4,-55.4 h -38.4 l 0.1,59.9 c 0,25.1 16.2,47.3 40.1,55 l 49.5,16 -36.4,106.7 c 2.4,6.7 3.7,14 3.7,21.7 0,37.3 -15.9,62.9 -42.4,70.7 0.7,3.7 1.1,7.4 1.1,11.2 0,31.1 -23.6,56.7 -53.8,60 -2.7,8.6 -10.8,14.9 -20.3,14.9 v -15 c 3.5,0 6.3,-2.8 6.3,-6.3 0,-3.5 -2.8,-6.3 -6.3,-6.3 v -15 c 8.7,0 16.1,5.2 19.4,12.7 22.3,-2.8 39.7,-21.9 39.7,-44.9 0,-3 -0.3,-5.9 -0.9,-8.8 -1.1,0 -2.1,0.2 -3.1,0.2 v -15 c 28.8,0 45.3,-21.2 45.3,-58.2 0,-26.5 -19.9,-47.3 -45.3,-47.3 -24.2,0 -49.1,28.6 -50.7,76.8 8,3.1 13.7,10.8 13.7,19.9 h -15 c 0,-3.5 -2.8,-6.3 -6.3,-6.3 -3.5,0 -6.3,2.8 -6.3,6.3 h -15 c 0,-9.1 5.8,-16.9 13.9,-19.9 0.7,-22.8 6.2,-41.9 14.6,-56.7 -1,-11.2 -10.5,-20 -22,-20 v -15 c 14.2,0 26.6,8.1 32.8,19.9 4.4,-4.9 9.2,-8.8 14.2,-12 0.8,-2.3 1.2,-4.7 1.2,-7.2 0,-5.6 -2.1,-11 -6,-15.1 -0.2,-0.2 -0.3,-0.4 -0.5,-0.5 -7.1,-9.2 -20,-16.6 -34.5,-19.9 -13.7,-3.1 -27.5,-2.3 -37.8,2.2 -0.1,0.1 -0.2,0.1 -0.4,0.2 -2.6,1 -5,2.4 -7,4.2 -3.7,3 -5.9,6.4 -6.7,10.1 -0.2,0.8 -0.3,1.6 -0.3,2.4 0,0.2 0,0.4 -0.1,0.6 -0.2,1.3 -0.3,2.4 -0.3,3.4 0,7.3 3.6,14.1 9.7,18.2 2,1.4 3.3,3.7 3.3,6.2 0,2.5 -1.2,4.8 -3.3,6.2 -6.1,4.1 -9.7,11 -9.7,18.3 0,12.2 9.9,22.1 22.1,22.1 0.6,0 1.1,0 1.7,-0.1 3.7,-0.3 7,2.1 7.9,5.7 0.9,3.6 -0.9,7.2 -4.3,8.7 -16.6,7.2 -27.3,23.5 -27.3,41.6 0,14.7 7.2,28.6 19.3,37.1 0.2,0.2 0.5,0.4 0.7,0.6 0.8,0.7 1.6,1.3 2.5,1.9 6.9,4.6 15.3,6.6 24.4,5.7 0.1,0 0.2,0 0.4,0 10.6,-0.4 20.8,-4.6 28.6,-11.7 0.2,-0.1 0.3,-0.3 0.5,-0.4 6.5,-5 12.2,-11.1 16.9,-18.2 9,-13.6 13.3,-29.1 12.1,-43.4 -8.9,-2.5 -15.4,-10.7 -15.4,-20.5 h 15 c 0,3.5 2.8,6.3 6.3,6.3 3.5,0 6.3,-2.8 6.3,-6.3 h 15 c 0,8.5 -5,15.8 -12.2,19.2 1.5,17.6 -3.7,36.5 -14.5,52.9 -5.6,8.4 -12.3,15.7 -20,21.6 -10.4,9.3 -23.7,14.8 -37.7,15.4 -1.7,0.2 -3.5,0.2 -5.2,0.2 -8.1,0 -15.8,-1.7 -22.8,-5.1 -11.2,1 -20.1,10.5 -20.1,22 0,7.3 3.6,14.1 9.6,18.3 2,1.4 3.3,3.7 3.3,6.2 0,2.5 -1.2,4.8 -3.3,6.2 -6,4.1 -9.6,11 -9.6,18.3 0,4.2 1.2,8.3 3.5,11.9 0.1,0.1 0.1,0.2 0.2,0.3 0,0 0,0.1 0.1,0.1 0.1,0.1 0.2,0.2 0.2,0.3 8.6,13.3 22.7,21.2 37.7,21.2 21.4,0 40,-15.2 44.4,-36.1 l 14.7,3 c -3.7,17.6 -14.9,32.1 -29.9,40.4 159.4,-8 270.8,-47 270.8,-47 l 0.6,-306.8 c -0.2,-28.6 -5.8,-56.7 -16.7,-82.8 z"
         id="path14"
         inkscape:connector-curvature="0"
         style="fill:#01406b" /></g><g
       id="g20"><path
         d="m 537.9,532.2 c -5,-2.6 -9.3,-6.2 -12.6,-10.7 -3.4,4.4 -7.7,8.1 -12.6,10.7 5.1,4.6 9.4,9.9 12.6,15.9 3.2,-5.9 7.5,-11.3 12.6,-15.9 z"
         id="path18"
         inkscape:connector-curvature="0"
         style="fill:#01406b" /></g></g></svg>