<?xml version="1.0" encoding="utf-8"?>
<!-- Generator: Adobe Illustrator 16.0.0, SVG Export Plug-In . SVG Version: 6.00 Build 0)  -->
<!DOCTYPE svg PUBLIC "-//W3C//DTD SVG 1.1//EN" "http://www.w3.org/Graphics/SVG/1.1/DTD/svg11.dtd">
<svg version="1.1" id="Layer_1" xmlns="http://www.w3.org/2000/svg" xmlns:xlink="http://www.w3.org/1999/xlink" x="0px" y="0px"
     width="480.309px" height="111.697px" viewBox="0 0 480.309 111.697" enable-background="new 0 0 480.309 111.697"
     xml:space="preserve">
<g>
    <path fill="#01406B" d="M294.686,2.558c-33.982,5.211-32.531,25.238-32.531,25.238c-11.609,2.704-11.898,9.362-12.998,14.89
	c-1.703,8.566,6.266,30.509,10.537,41.039c1.16-4.006,3.229-6.828,6.293-8.633c1.178-0.695,2.475-1.23,4.045-1.637l0.707-6.106
	c-0.494-4.604-0.652-4.767-0.771-8.528c-1.689-17.781,12.348-21.064,21.611-21.309c15.436-0.409,35.863,1.808,47.207,2.956
	c18.146,1.841,17.26,20.611,17.26,20.611l-0.787,6.271l1.238,6.136c3.463,0.844,5.691,2.242,7.619,4.445
	c1.186,1.355,2.051,2.736,2.68,4.439c2.211-14.979,4.848-41.501,4.848-41.501C373.631-14.791,294.686,2.558,294.686,2.558z"/>
    <path fill="#01406B" d="M299.754,67.349c0,1.588-1.287,2.875-2.875,2.875h-18.5c-1.588,0-2.875-1.287-2.875-2.875l0,0
	c0-1.588,1.287-2.875,2.875-2.875h18.5C298.467,64.474,299.754,65.761,299.754,67.349L299.754,67.349z"/>
    <path fill="#01406B" d="M350.379,67.349c0,1.588-1.287,2.875-2.875,2.875h-18.5c-1.588,0-2.875-1.287-2.875-2.875l0,0
	c0-1.588,1.287-2.875,2.875-2.875h18.5C349.092,64.474,350.379,65.761,350.379,67.349L350.379,67.349z"/>
    <path fill="#00A2DB" d="M0,58.155h33.381c17.798,0.396,17.798,0.396,21.041,2.848c3.006,2.294,4.271,6.249,4.271,13.447
	c0,7.119-1.107,10.916-3.955,13.289c-2.769,2.452-5.063,3.085-11.549,3.243c-1.661,0.079-1.661,0.079-9.809,0.079H7.04v19.854H0
	V58.155z M33.381,84.892c12.735,0,13.843-0.158,15.979-1.898c1.582-1.345,2.136-3.401,2.136-8.306c0-5.379-0.475-7.198-1.978-8.385
	c-2.136-1.582-2.927-1.74-16.137-1.978H7.04v20.566H33.381z"/>
    <path fill="#00A2DB" d="M76.571,74.292v4.904h0.396c0.949-1.661,2.215-2.848,4.113-3.876c2.215-1.107,5.379-1.503,12.498-1.503
	s10.125,0.633,12.577,2.769s3.718,5.616,3.718,10.362v3.797h-5.933v-2.61c0-7.594-1.978-9.255-10.995-9.255
	c-13.922,0-16.374,2.294-16.374,15.108v16.928h-5.774V74.292H76.571z"/>
    <path fill="#00A2DB" d="M163.108,76.27c4.588,2.769,6.565,7.594,6.565,16.295c0,8.622-1.898,13.526-6.17,16.216
	c-3.164,1.978-7.356,2.61-17.007,2.61c-10.362,0-14.95-0.633-18.193-2.373c-4.904-2.61-6.882-7.436-6.882-16.611
	c0-8.464,2.136-13.605,6.724-16.216c3.006-1.74,7.198-2.373,15.741-2.373C155.356,73.817,160.023,74.371,163.108,76.27z
	 M131.547,80.857c-2.769,1.74-3.955,5.379-3.955,11.944c0,7.356,1.503,10.679,5.458,12.261c2.452,0.87,6.091,1.266,12.973,1.266
	c8.227,0,11.549-0.554,13.922-2.215c2.531-1.819,3.56-5.142,3.56-11.707c0-6.961-1.345-10.283-4.746-11.944
	c-2.294-1.107-6.328-1.582-13.843-1.582C137.242,78.88,133.762,79.434,131.547,80.857z"/>
    <path fill="#01406B" d="M247.432,84.18c-0.078,10.125-0.158,12.894-0.791,15.979c-1.107,5.379-3.084,7.752-7.91,9.334
	c-3.164,1.028-10.916,1.582-21.911,1.582c-9.571,0-18.589-0.396-22.702-1.028c-5.063-0.87-8.622-3.797-9.729-8.385
	c-0.949-3.797-1.503-9.888-1.503-17.086c0-6.882,0.554-13.21,1.582-17.086c1.266-4.904,4.588-7.594,10.283-8.464
	c4.351-0.712,10.6-1.028,19.063-1.028c7.277,0,18.272,0.475,21.517,0.949c4.666,0.633,8.621,3.243,10.203,6.803
	c1.107,2.373,1.424,4.351,1.504,8.938h-7.199c-0.078-4.588-0.553-6.565-1.74-7.752c-1.344-1.345-3.4-1.819-8.938-2.215
	c-2.927-0.237-9.729-0.396-14.08-0.396c-14.792,0-20.25,0.633-22.386,2.689c-1.978,1.819-2.61,6.012-2.61,16.611
	c0,6.961,0.396,13.368,0.949,15.504c1.424,5.142,4.034,5.616,28.556,5.616c12.261,0,16.85-0.712,18.826-2.848
	c1.424-1.582,1.82-3.876,1.979-11.549h-27.528v-6.17H247.432z"/>
    <path fill="#01406B" d="M385.939,58.155v30.217h3.402l22.148-14.08h9.176l-25.551,16.69l29.268,19.934h-9.65l-25.787-17.402h-3.006
	v17.402h-5.773V58.155H385.939z"/>
    <path fill="#01406B" d="M440.125,98.181l0.078,1.028c0,3.164,0.316,4.43,1.504,5.3c1.977,1.503,4.746,1.819,16.215,1.819
	c9.73,0,12.736-0.316,14.477-1.582c1.186-0.949,1.74-2.294,1.74-4.113c0-4.351-2.373-5.774-9.572-5.695
	c-1.818,0-2.926,0-16.928-0.158c-9.65-0.158-13.051-2.848-13.051-10.125c0-3.876,1.186-6.486,3.717-8.306s7.99-2.531,18.984-2.531
	c12.262,0,17.324,1.107,20.014,4.588c1.344,1.661,1.66,2.848,1.66,7.198h-6.17c0-2.689-0.236-3.639-1.107-4.43
	c-1.582-1.582-5.932-2.294-14.633-2.294c-7.832,0-12.736,0.554-14.477,1.661c-1.266,0.87-1.818,2.136-1.818,4.192
	c0,4.034,2.135,4.983,10.916,4.825c2.373-0.079,12.973,0.158,16.848,0.316c8.307,0.316,11.787,3.48,11.787,10.679
	c0,4.43-1.188,6.961-4.113,8.701c-2.531,1.503-7.832,2.136-18.59,2.136c-12.023,0-17.164-0.633-19.934-2.452
	c-2.768-1.898-3.717-4.192-3.717-8.859v-1.898H440.125z"/>
    <path fill="#01406B" d="M358.842,103.918c-1.887,2.121-5.109,2.75-13.357,2.75c-10.842,0-14.85-0.707-17.049-2.984
	c-1.729-1.811-2.514-4.637-2.67-9.352c-0.35-2.408,0.156-4.947,0.156-4.947c0.627-8.092,3.691-9.979,16.262-9.979
	c14.143,0,17.678,1.963,17.758,9.979h-7.056c0.422,1.141,0.664,2.367,0.664,3.652c0,0.439-0.035,0.87-0.088,1.295h12.843
	c-0.158-8.641-0.943-11.939-3.693-15.084c-3.299-3.77-7.777-4.871-20.27-4.871c-9.035,0-13.279,0.629-16.344,2.438
	c-0.92,0.543-1.732,1.201-2.451,1.977c-1.998,1.859-5.789,3.123-10.172,3.123c-4.455,0-8.307-1.307-10.277-3.213
	c-3.262-3.328-7.896-4.324-19.756-4.324c-9.033,0-13.275,0.629-16.34,2.438c-4.4,2.592-6.443,7.697-6.443,16.34
	c0,7.779,1.807,12.807,5.5,15.398c3.221,2.279,8.957,3.145,21.057,3.145c14.768,0,19.877-2.986,20.111-11.707h-6.049
	c-0.238,2.355-0.393,2.984-1.336,3.928c-1.887,2.121-5.107,2.75-13.355,2.75c-10.842,0-14.85-0.707-17.049-2.984
	c-1.729-1.811-2.516-4.637-2.672-9.352c-0.348-2.408,0.156-4.947,0.156-4.947c0.631-8.092,3.693-9.979,16.264-9.979
	c14.141,0,17.678,1.963,17.754,9.979h-6.887c0.422,1.141,0.664,2.367,0.664,3.652c0,0.439-0.035,0.87-0.088,1.295h10.637
	l2.178,0.074c0.461-2.916,2.965-5.152,6.01-5.152c3.18,0,5.764,2.443,6.047,5.549l0.107,0.004
	c0.248,6.826,2.029,11.346,5.449,13.746c3.221,2.279,8.957,3.145,21.055,3.145c14.771,0,19.879-2.986,20.113-11.707h-6.049
	C359.941,102.346,359.781,102.975,358.842,103.918z"/>
    <path fill="#00A2DB" d="M290.278,87.06c-0.415,1.254-1.584,2.164-2.977,2.164c-1.739,0-3.148-1.41-3.148-3.149
	c0-0.578,0.167-1.112,0.438-1.577c-0.146-0.008-0.29-0.022-0.438-0.022c-4.729,0-8.563,3.834-8.563,8.563s3.834,8.563,8.563,8.563
	s8.563-3.834,8.563-8.563C292.717,90.71,291.785,88.603,290.278,87.06z"/>
    <path fill="#00A2DB" d="M349.808,87.876c-0.569,0.813-1.51,1.348-2.578,1.348c-1.739,0-3.148-1.41-3.148-3.149
	c0-0.532,0.145-1.025,0.377-1.465c-0.479-0.083-0.968-0.135-1.471-0.135c-4.729,0-8.563,3.834-8.563,8.563s3.834,8.563,8.563,8.563
	s8.563-3.834,8.563-8.563C351.55,91.096,350.896,89.312,349.808,87.876z"/>
</g>
</svg>
