<?xml version="1.0" encoding="UTF-8" standalone="no"?>
<!-- Generator: Adobe Illustrator 21.0.0, SVG Export Plug-In . SVG Version: 6.00 Build 0)  -->

<svg
   xmlns:dc="http://purl.org/dc/elements/1.1/"
   xmlns:cc="http://creativecommons.org/ns#"
   xmlns:rdf="http://www.w3.org/1999/02/22-rdf-syntax-ns#"
   xmlns:svg="http://www.w3.org/2000/svg"
   xmlns="http://www.w3.org/2000/svg"
   xmlns:sodipodi="http://sodipodi.sourceforge.net/DTD/sodipodi-0.dtd"
   xmlns:inkscape="http://www.inkscape.org/namespaces/inkscape"
   version="1.1"
   id="Layer_1"
   x="0px"
   y="0px"
   viewBox="50 50 50 50"
   enable-background="new 0 0 400 400"
   xml:space="preserve"
   sodipodi:docname="nda-corporate-color-light-50x50.svg"
   width="50"
   height="50"
   inkscape:version="0.92.2 (unknown)"><metadata
     id="metadata13"><rdf:RDF><cc:Work
         rdf:about=""><dc:format>image/svg+xml</dc:format><dc:type
           rdf:resource="http://purl.org/dc/dcmitype/StillImage" /><dc:title></dc:title></cc:Work></rdf:RDF></metadata><defs
     id="defs11" /><sodipodi:namedview
     pagecolor="#ffffff"
     bordercolor="#666666"
     borderopacity="1"
     objecttolerance="10"
     gridtolerance="10"
     guidetolerance="10"
     inkscape:pageopacity="0"
     inkscape:pageshadow="2"
     inkscape:window-width="1590"
     inkscape:window-height="948"
     id="namedview9"
     showgrid="false"
     inkscape:zoom="3.1466667"
     inkscape:cx="97.525864"
     inkscape:cy="67.118025"
     inkscape:window-x="65"
     inkscape:window-y="24"
     inkscape:window-maximized="0"
     inkscape:current-layer="g6" /><g
     id="g6"
     transform="translate(0,-250)"><path
       d="m 75.23162,311.20799 c 2.670028,0 4.813571,-2.14354 4.813571,-4.81356 0,-2.67003 -2.143543,-4.81358 -4.813571,-4.81358 -2.670027,0 -4.813569,2.14355 -4.813569,4.81358 0,2.67002 2.143542,4.81356 4.813569,4.81356 z m 6.731478,1.8427 c 0,0 -2.519605,-0.52648 -3.346937,-0.6017 -1.69227,0.45128 -5.001598,0.45128 -6.731475,0 -0.86494,0.0752 -3.346936,0.6017 -3.346936,0.6017 -1.015362,0.18803 -1.842695,0.94014 -2.143541,1.95551 l -1.504242,5.30245 c 2.858057,-2.25637 6.430628,-3.61018 10.341653,-3.61018 3.911027,0 7.483598,1.35381 10.304048,3.61018 l -1.466635,-5.30245 c -0.263241,-1.05297 -1.090573,-1.80509 -2.105935,-1.95551 z m 12.109134,13.50056 c 0,-0.75213 0.225636,-1.42904 0.601697,-2.03073 l 0.639301,2.29397 0.03761,1.42903 h 4.51272 l -0.0376,-1.80509 c 0,-0.18803 -0.0376,-0.37606 -0.07522,-0.56409 l -1.917906,-6.8819 c -0.225637,-0.82734 -0.902546,-1.46664 -1.767484,-1.61707 0,0 -2.068331,-0.41366 -2.782843,-0.48886 -1.353819,0.37605 -4.174269,0.45126 -5.565692,0 -0.300847,0.0376 -1.128178,0.18802 -1.128178,0.18802 l 1.579452,5.67851 c 1.316209,1.61706 2.331572,3.45975 2.970875,5.45288 h 2.970875 z m -3.610178,-10.68011 c 2.218756,0 3.986239,-1.80509 3.986239,-3.98624 0,-2.21875 -1.80509,-3.98624 -3.986239,-3.98624 -2.218752,0 -3.986237,1.80509 -3.986237,3.98624 0,2.18115 1.805088,3.98624 3.986237,3.98624 z m 1.128182,14.10225 c 0.225637,1.09057 0.338453,2.21876 0.338453,3.38454 0,0.30085 -0.0376,0.6017 -0.0376,0.90255 h 7.972474 v -4.28709 z m -40.952947,0 v 4.28709 h 7.934867 c 0,-0.30085 -0.0376,-0.6017 -0.0376,-0.90255 0,-1.16578 0.11282,-2.29397 0.338457,-3.38454 z m 9.363896,-22.11233 c -2.218754,0 -3.986237,1.80509 -3.986237,3.98624 0,2.21875 1.80509,3.98623 3.986237,3.98623 2.218755,0 3.986238,-1.80508 3.986238,-3.98623 0,-2.18115 -1.767483,-3.98624 -3.986238,-3.98624 z m -2.782843,9.02545 c -0.714515,0.0752 -2.782845,0.48886 -2.782845,0.48886 -0.864941,0.15043 -1.541848,0.78973 -1.767483,1.61707 l -1.917907,6.8819 c -0.0376,0.18803 -0.07522,0.37606 -0.07522,0.56409 l -0.0376,1.80509 h 4.512722 l 0.0376,-1.42903 0.639303,-2.29397 c 0.376059,0.56409 0.639301,1.2786 0.601696,2.03073 l -0.0376,1.69227 h 2.970873 c 0.639302,-1.99312 1.654664,-3.83582 2.93327,-5.41527 0,0 0,-0.0376 0,-0.0376 l 1.579451,-5.71612 c 0,0 -0.827331,-0.18802 -1.090572,-0.18802 -1.316212,0.26324 -4.174269,0.33845 -5.565689,0 z"
       id="path2"
       inkscape:connector-curvature="0"
       style="fill:#3399cc;stroke-width:0.37606013;fill-opacity:1" /><path
       d="m 81.135765,331.77849 h -0.56409 v -3.0837 c 0,-1.42903 -0.564091,-2.78285 -1.579453,-3.76061 -0.977757,-0.97775 -2.293967,-1.54184 -3.68539,-1.57944 -0.0376,0 -0.0376,0 -0.07522,0 -1.429027,0 -2.782844,0.56408 -3.760599,1.57944 -1.015364,1.01537 -1.579454,2.36919 -1.579454,3.76061 v 3.0837 h -0.564091 c -1.052968,0 -1.917905,0.86493 -1.917905,1.9179 v 5.67851 c 0,1.05297 0.864937,1.9179 1.917905,1.9179 h 11.808288 c 1.052968,0 1.917907,-0.86493 1.917907,-1.9179 v -5.67851 c 0,-1.05297 -0.864939,-1.9179 -1.917907,-1.9179 z m -4.587935,4.09905 c 0,0.41366 -0.225635,0.78973 -0.526482,1.01536 v 1.35382 c 0,0.41366 -0.338455,0.78973 -0.789728,0.78973 -0.413667,0 -0.789726,-0.33846 -0.789726,-0.78973 v -1.35382 c -0.300848,-0.22563 -0.526485,-0.6017 -0.526485,-1.01536 v -0.6017 c 0,-0.71451 0.564091,-1.31621 1.316211,-1.31621 0.714516,0 1.31621,0.56409 1.31621,1.31621 z m 2.481997,-4.09905 h -7.558806 v -3.0837 c 0,-1.01537 0.376058,-1.95551 1.090572,-2.67002 0.714516,-0.71453 1.61706,-1.09059 2.594815,-1.09059 0,0 0.0376,0 0.0376,0 0,0 0,0 0,0 1.015362,0 1.955512,0.37606 2.670026,1.09059 0.714515,0.71451 1.090573,1.65465 1.090573,2.67002 v 3.0837 z M 75.23162,318.80441 c -8.01008,0 -14.553528,6.54345 -14.553528,14.55352 0,8.01008 6.543448,14.55353 14.553528,14.55353 8.01008,0 14.553526,-6.54345 14.553526,-14.55353 0,-8.01007 -6.505839,-14.55352 -14.553526,-14.55352 z m 0,26.9635 c -6.844292,0 -12.409983,-5.56568 -12.409983,-12.40998 0,-6.84429 5.565691,-12.40998 12.409983,-12.40998 6.844294,0 12.409983,5.56569 12.409983,12.40998 0,6.8443 -5.565689,12.40998 -12.409983,12.40998 z"
       id="path4"
       inkscape:connector-curvature="0"
       style="fill:#3399cc;stroke-width:0.37606013;fill-opacity:1" /></g></svg>