<?xml version="1.0" encoding="utf-8"?>
<!-- Generator: Adobe Illustrator 21.0.0, SVG Export Plug-In . SVG Version: 6.00 Build 0)  -->
<svg version="1.1" id="Layer_1" xmlns="http://www.w3.org/2000/svg" xmlns:xlink="http://www.w3.org/1999/xlink" x="0px" y="0px"
	 viewBox="50 50 300 300" enable-background="new 0 0 400 400" xml:space="preserve">
<g>
	<path fill="#01406B" d="M199.3,158.3c7.1,0,12.8-5.7,12.8-12.8c0-7.1-5.7-12.8-12.8-12.8c-7.1,0-12.8,5.7-12.8,12.8
		C186.5,152.6,192.2,158.3,199.3,158.3z M217.2,163.2c0,0-6.7-1.4-8.9-1.6c-4.5,1.2-13.3,1.2-17.9,0c-2.3,0.2-8.9,1.6-8.9,1.6
		c-2.7,0.5-4.9,2.5-5.7,5.2l-4,14.1c7.6-6,17.1-9.6,27.5-9.6c10.4,0,19.9,3.6,27.4,9.6l-3.9-14.1
		C222.1,165.6,219.9,163.6,217.2,163.2z M249.4,199.1c0-2,0.6-3.8,1.6-5.4l1.7,6.1l0.1,3.8h12l-0.1-4.8c0-0.5-0.1-1-0.2-1.5
		l-5.1-18.3c-0.6-2.2-2.4-3.9-4.7-4.3c0,0-5.5-1.1-7.4-1.3c-3.6,1-11.1,1.2-14.8,0c-0.8,0.1-3,0.5-3,0.5l4.2,15.1
		c3.5,4.3,6.2,9.2,7.9,14.5h7.9L249.4,199.1z M239.8,170.7c5.9,0,10.6-4.8,10.6-10.6c0-5.9-4.8-10.6-10.6-10.6
		c-5.9,0-10.6,4.8-10.6,10.6C229.2,165.9,234,170.7,239.8,170.7z M242.8,208.2c0.6,2.9,0.9,5.9,0.9,9c0,0.8-0.1,1.6-0.1,2.4h21.2
		v-11.4H242.8z M133.9,208.2v11.4H155c0-0.8-0.1-1.6-0.1-2.4c0-3.1,0.3-6.1,0.9-9H133.9z M158.8,149.4c-5.9,0-10.6,4.8-10.6,10.6
		c0,5.9,4.8,10.6,10.6,10.6c5.9,0,10.6-4.8,10.6-10.6C169.4,154.2,164.7,149.4,158.8,149.4z M151.4,173.4c-1.9,0.2-7.4,1.3-7.4,1.3
		c-2.3,0.4-4.1,2.1-4.7,4.3l-5.1,18.3c-0.1,0.5-0.2,1-0.2,1.5l-0.1,4.8h12l0.1-3.8l1.7-6.1c1,1.5,1.7,3.4,1.6,5.4l-0.1,4.5h7.9
		c1.7-5.3,4.4-10.2,7.8-14.4c0,0,0-0.1,0-0.1l4.2-15.2c0,0-2.2-0.5-2.9-0.5C162.7,174.1,155.1,174.3,151.4,173.4z"/>
	<path fill="#01406B" d="M215,213h-1.5v-8.2c0-3.8-1.5-7.4-4.2-10c-2.6-2.6-6.1-4.1-9.8-4.2c-0.1,0-0.1,0-0.2,0
		c-3.8,0-7.4,1.5-10,4.2c-2.7,2.7-4.2,6.3-4.2,10v8.2h-1.5c-2.8,0-5.1,2.3-5.1,5.1v15.1c0,2.8,2.3,5.1,5.1,5.1H215
		c2.8,0,5.1-2.3,5.1-5.1v-15.1C220.1,215.3,217.8,213,215,213z M202.8,223.9c0,1.1-0.6,2.1-1.4,2.7v3.6c0,1.1-0.9,2.1-2.1,2.1
		c-1.1,0-2.1-0.9-2.1-2.1v-3.6c-0.8-0.6-1.4-1.6-1.4-2.7v-1.6c0-1.9,1.5-3.5,3.5-3.5c1.9,0,3.5,1.5,3.5,3.5V223.9z M209.4,213h-20.1
		v-8.2c0-2.7,1-5.2,2.9-7.1c1.9-1.9,4.3-2.9,6.9-2.9c0,0,0.1,0,0.1,0c0,0,0,0,0,0c2.7,0,5.2,1,7.1,2.9c1.9,1.9,2.9,4.4,2.9,7.1V213z
		 M199.3,178.5c-21.3,0-38.7,17.4-38.7,38.7c0,21.3,17.4,38.7,38.7,38.7c21.3,0,38.7-17.4,38.7-38.7
		C238,195.9,220.7,178.5,199.3,178.5z M199.3,250.2c-18.2,0-33-14.8-33-33c0-18.2,14.8-33,33-33c18.2,0,33,14.8,33,33
		C232.3,235.4,217.5,250.2,199.3,250.2z"/>
</g>
</svg>
